<svg xmlns="http://www.w3.org/2000/svg" viewBox="0 0 320 120" width="320" height="120" role="img" aria-labelledby="pce-logo-title">
  <title id="pce-logo-title">ProClean Empire</title>
  <rect width="320" height="120" fill="none" />
  <g stroke="#666666" stroke-width="5" stroke-linecap="round">
    <line x1="50" y1="18" x2="50" y2="82" />
    <line x1="62" y1="26" x2="62" y2="82" />
    <line x1="74" y1="34" x2="74" y2="82" />
    <line x1="86" y1="42" x2="86" y2="82" />
    <line x1="98" y1="50" x2="98" y2="82" />
    <line x1="122" y1="8" x2="122" y2="82" />
    <line x1="134" y1="14" x2="134" y2="82" />
    <line x1="146" y1="20" x2="146" y2="82" />
    <line x1="158" y1="26" x2="158" y2="82" />
    <line x1="170" y1="32" x2="170" y2="82" />
    <line x1="182" y1="38" x2="182" y2="82" />
    <line x1="194" y1="44" x2="194" y2="82" />
    <line x1="206" y1="50" x2="206" y2="82" />
  </g>
  <text x="128" y="104" text-anchor="middle" font-family="Georgia, 'Times New Roman', serif" font-size="27" font-weight="700" fill="#0c4fb4">PROCLEAN</text>
  <text x="128" y="118" text-anchor="middle" font-family="Georgia, 'Times New Roman', serif" font-size="20" letter-spacing="8" fill="#545454">EMPIRE</text>
</svg>
