<svg xmlns="http://www.w3.org/2000/svg" viewBox="0 0 320 400" role="img" aria-label="ProClean Empire">
  <g fill="#58595b">
    <rect x="10"  y="118" width="12" height="82"/>
    <rect x="28"  y="106" width="12" height="94"/>
    <rect x="46"  y="92"  width="12" height="108"/>
    <rect x="64"  y="78"  width="12" height="122"/>
    <rect x="82"  y="96"  width="12" height="104"/>
    <rect x="100" y="112" width="12" height="88"/>
    <rect x="118" y="132" width="12" height="68"/>
    <rect x="136" y="152" width="12" height="48"/>

    <rect x="168" y="140" width="12" height="60"/>
    <rect x="186" y="40"  width="12" height="160"/>
    <rect x="204" y="10"  width="12" height="190"/>
    <rect x="222" y="30"  width="12" height="170"/>
    <rect x="240" y="52"  width="12" height="148"/>
    <rect x="258" y="72"  width="12" height="128"/>
    <rect x="276" y="92"  width="12" height="108"/>
    <rect x="294" y="118" width="12" height="82"/>
  </g>
  <text x="160" y="248" text-anchor="middle" font-family="Georgia, 'Times New Roman', serif" font-weight="700" font-size="46" fill="#1d4ed8" letter-spacing="1">ProClean</text>
  <text x="160" y="288" text-anchor="middle" font-family="Georgia, 'Times New Roman', serif" font-size="34" fill="#58595b" letter-spacing="10">EMPIRE</text>
</svg>
